<svg xmlns="http://www.w3.org/2000/svg" shape-rendering="geometricPrecision" text-rendering="geometricPrecision" image-rendering="optimizeQuality" fill-rule="evenodd" clip-rule="evenodd" viewBox="0 0 363 511.49"><path fill-rule="nonzero" d="M46.73 0H303.5c16.34 0 31.21 6.71 41.99 17.48C356.29 28.29 363 43.17 363 59.5v443.53c0 4.67-3.79 8.46-8.46 8.46-2.05 0-3.94-.74-5.41-1.97L181.42 378.99 13.64 509.67c-3.66 2.86-8.97 2.21-11.82-1.45a8.413 8.413 0 01-1.78-5.19L0 46.73c0-12.82 5.25-24.5 13.72-32.98C22.25 5.24 33.92 0 46.73 0zm88.98 183.4c-4.66 0-8.45-3.79-8.45-8.46 0-4.66 3.79-8.45 8.45-8.45h91.58c4.66 0 8.45 3.79 8.45 8.45 0 4.67-3.79 8.46-8.45 8.46h-91.58zM181.5 62.02c31.18 0 59.42 12.64 79.85 33.07 20.42 20.46 33.07 48.69 33.07 79.85 0 31.16-12.65 59.39-33.07 79.82-20.46 20.45-48.7 33.11-79.85 33.11-31.16 0-59.39-12.66-79.82-33.08-20.46-20.43-33.1-48.67-33.1-79.85 0-31.18 12.64-59.42 33.07-79.85 20.43-20.43 48.67-33.07 79.85-33.07zm67.91 45.01c-17.38-17.35-41.4-28.1-67.91-28.1-26.52 0-50.53 10.75-67.9 28.12-17.37 17.37-28.11 41.38-28.11 67.89 0 26.51 10.74 50.53 28.11 67.9 17.36 17.37 41.37 28.12 67.9 28.12 26.53 0 50.54-10.75 67.91-28.1 17.36-17.37 28.1-41.39 28.1-67.92s-10.74-50.54-28.1-67.91zm54.09-90.12H46.73c-8.21 0-15.67 3.35-21.05 8.73-5.42 5.42-8.77 12.88-8.77 21.09v439.04l158.84-123.72c2.98-2.71 7.58-2.98 10.87-.42l159.47 124.12V59.5c0-11.7-4.8-22.36-12.51-30.09-7.72-7.71-18.36-12.5-30.08-12.5z"/></svg>